<svg xmlns="http://www.w3.org/2000/svg" viewBox="0 0 100 100"><defs><style>.cls-1{fill:#ad986c;}.cls-2{fill:#fff;}</style></defs><g id="Layer_2" data-name="Layer 2"><g id="Layer_2-2" data-name="Layer 2"><rect class="cls-1" width="100" height="100"/><g id="Layer_1-2" data-name="Layer 1"><path class="cls-2" d="M90.06,43.08a2.28,2.28,0,0,0-.21-.51,24.53,24.53,0,0,0-1.27-3.12A23.94,23.94,0,0,0,68.94,26.26,23,23,0,0,0,55,29.77a27.63,27.63,0,0,0-3.67,2.82c-.41-.43-.8-.81-1.22-1.19a24.86,24.86,0,0,0-14.48-6.25,24.93,24.93,0,0,0-21.85,40,25.3,25.3,0,0,0,19.84,9.62,24.73,24.73,0,0,0,15.53-5.44,25.11,25.11,0,0,0,2.05-1.85,22,22,0,0,0,3,2.41,24.31,24.31,0,0,0,12.65,3.83h.19a23.92,23.92,0,0,0,20.1-10.8,23.5,23.5,0,0,0,2.69-5.68,2.56,2.56,0,0,0,.16-.4A25,25,0,0,0,90.06,43.08Zm-2.49,6.77-1,.14a21.8,21.8,0,0,1-.31,3.51,43.78,43.78,0,0,0-12.35-1.7,36.22,36.22,0,0,0-20.08,7,22.3,22.3,0,0,0-2.45,2.11,20.68,20.68,0,0,1,0-21.86c5.48,5,13.63,8.37,22,9.13a33.51,33.51,0,0,0,12.85-1.67,19.81,19.81,0,0,1,.3,2.87c0,.14,0,.29,0,.44Zm-30.26,12a34,34,0,0,1,10.6-4.74,32.9,32.9,0,0,1,16.55.52l.52.14A19.6,19.6,0,0,1,67.11,69.28H67a19.62,19.62,0,0,1-11.48-4c-.39-.29-.78-.62-1.18-1A19.9,19.9,0,0,1,57.31,61.83Zm17.18-18A34.76,34.76,0,0,1,64,41.36a30.77,30.77,0,0,1-9.53-5.57,20.87,20.87,0,0,1,6.76-4.12,19.29,19.29,0,0,1,20.69,5.69A18.66,18.66,0,0,1,85,42.29,30,30,0,0,1,74.49,43.83ZM25.19,52.2a34.14,34.14,0,0,1,20.7,9.72c.77.77,1.53,1.58,2.26,2.38a24,24,0,0,1-1.79,1.63,20.34,20.34,0,0,1-33-13.73Zm19.08,2.5a37.36,37.36,0,0,0-8.51-4.54,30.8,30.8,0,0,0,8.46-4.69A25.35,25.35,0,0,0,44.27,54.7ZM46.82,37c-2.73,2.72-5.55,5.54-9,7.39a28.52,28.52,0,0,1-12.63,3.35H13.3A20.17,20.17,0,0,1,18.6,36a20.61,20.61,0,0,1,15.22-6.53A20.37,20.37,0,0,1,43.32,32a20.85,20.85,0,0,1,3.91,2.77c.31.28.61.58.93.91Z"/></g></g></g></svg>
